# xmcd CD database file
#
# Track frame offsets:
#	150
#	17019
#	37661
#	59832
#	81301
#	100591
#	116268
#	131939
#	150126
#	171745
#	187099
#	206100
#	224370
#	236503
#
# Disc length: 3443 seconds
#
# Revision: 0
# Processed by: cddbd v1.5.2PL0 Copyright (c) Steve Scherf et al.
# Submitted via: CDex 1.51
#
DISCID=c20d710e
DTITLE=Christiana Uikiza - This Time It's Different
DYEAR=2008
DGENRE=Jazz
TTITLE0=No You Can't
TTITLE1=Someone New
TTITLE2=Thank You
TTITLE3=Don't Call Me Names!
TTITLE4=Ancora
TTITLE5=You Better Be Good
TTITLE6=This Time It's Different
TTITLE7=Nothing New
TTITLE8=Kisses Are Promises
TTITLE9=No Future Plans
TTITLE10=Lumina
TTITLE11=What If I Do
TTITLE12=All My Traust
TTITLE13=Seventy Something
EXTD=YEAR: 2008
EXTT0=
EXTT1=
EXTT2=
EXTT3=
EXTT4=
EXTT5=
EXTT6=
EXTT7=
EXTT8=
EXTT9=
EXTT10=
EXTT11=
EXTT12=
EXTT13=
PLAYORDER=
